<svg width="56" height="60" viewBox="0 0 56 60" fill="none" xmlns="http://www.w3.org/2000/svg">
<path d="M54.2672 23.7503H11.6435L52.0264 10.1142C52.6529 9.90332 52.9899 9.22464 52.7791 8.5981C52.7781 8.5954 52.7773 8.59283 52.7764 8.59013L50.1473 0.81469C49.9361 0.188414 49.2571 -0.148157 48.6307 0.063078C48.6304 0.063213 48.6302 0.063213 48.6299 0.0633481L1.35071 16.0372C0.724303 16.2485 0.387867 16.9274 0.599102 17.5538C0.599237 17.5541 0.599237 17.5544 0.599372 17.5546L3.16458 25.1506V58.8032C3.16458 59.4642 3.70036 60.0001 4.36149 60.0001H54.2672C54.9282 60.0001 55.4641 59.4644 55.4641 58.8032V24.9471C55.464 24.2861 54.9282 23.7503 54.2672 23.7503ZM35.0791 7.16862L42.5261 10.799L31.9899 14.3551L24.596 10.7087L35.0791 7.16862ZM3.24967 17.9216L7.70194 16.4176L15.1489 20.0466L5.11269 23.435L3.24967 17.9216ZM5.55826 31.9699V26.144H16.0931L10.2738 31.9699H5.55826ZM42.8946 51.2058H15.7328C15.0718 51.2058 14.5359 50.67 14.5359 50.0089C14.5359 49.3479 15.0717 48.812 15.7328 48.812H42.8946C43.5555 48.812 44.0915 49.3478 44.0915 50.0089C44.0913 50.67 43.5555 51.2058 42.8946 51.2058ZM42.8946 43.1577H15.7328C15.0718 43.1577 14.5359 42.6219 14.5359 41.9608C14.5359 41.2998 15.0717 40.7639 15.7328 40.7639H42.8946C43.5555 40.7639 44.0915 41.2996 44.0915 41.9608C44.0913 42.6219 43.5555 43.1577 42.8946 43.1577ZM39.1709 31.9699H28.1068L33.9261 26.144H44.9889L39.1709 31.9699Z" fill="#A3E4DB"/>
</svg>
