<svg width="238" height="48" viewBox="0 0 238 48" fill="none" xmlns="http://www.w3.org/2000/svg">
<g clip-path="url(#clip0_138_26)">
<path d="M26.4487 39.9579C26.644 38.9961 27.1127 38.1118 27.7984 37.4124C28.4839 36.7129 29.3568 36.2282 30.3112 36.0173V33.6619C29.7156 33.5708 29.1505 33.3371 28.6637 32.9802C28.177 32.6234 27.783 32.1542 27.515 31.6121C27.5039 31.5881 27.4859 31.568 27.4634 31.5542C27.4408 31.5404 27.4146 31.5337 27.3883 31.5349C26.4415 31.5332 25.5338 31.1546 24.8642 30.482C24.1947 29.8093 23.8176 28.8976 23.8159 27.9464C23.8159 27.8377 23.83 27.7213 23.8409 27.6082C21.9749 28.5445 20.3395 29.8857 19.0528 31.5349C17.2327 33.8945 16.2428 36.7936 16.2382 39.7786C16.2403 41.3136 16.6781 42.8163 17.5002 44.1105C18.3224 45.4046 19.4949 46.4364 20.8801 47.0848L24.6918 43.2562C25.5895 42.3557 26.2011 41.2078 26.4487 39.9579ZM20.5684 36.9719H18.4033V34.7972H20.5684V36.9719ZM22.7334 32.6223H24.8985V34.7972H22.7334V32.6223ZM23.8159 40.2342H21.651V38.0593H23.8159V40.2342Z" fill="white"/>
<path d="M29.4527 30.6411C29.5859 30.9105 29.7917 31.1371 30.0465 31.295C30.3014 31.4532 30.5951 31.5361 30.8948 31.5348H31.8927C32.1928 31.536 32.4869 31.4526 32.7419 31.2943C32.997 31.136 33.2027 30.9088 33.3359 30.6388C33.5259 30.253 33.8202 29.9285 34.1851 29.7025C34.5498 29.4764 34.9706 29.3577 35.3992 29.36C35.655 29.3611 35.9061 29.2922 36.126 29.1607C36.3456 29.0292 36.5255 28.84 36.6461 28.6134C36.7668 28.3868 36.8237 28.1315 36.8107 27.8749C36.7977 27.6184 36.7155 27.37 36.5727 27.157C36.1347 26.4956 35.5403 25.9535 34.843 25.5789C34.1457 25.2042 33.3667 25.0091 32.576 25.0104H30.2115C29.4212 25.0095 28.643 25.2052 27.946 25.5799C27.2492 25.9546 26.6556 26.4967 26.2181 27.1581C26.0757 27.3709 25.9937 27.6188 25.9807 27.8749C25.9677 28.1309 26.0246 28.3858 26.1448 28.6121C26.265 28.8385 26.4443 29.0275 26.6634 29.1592C26.8823 29.2909 27.1331 29.3605 27.3883 29.36C27.8173 29.3579 28.2385 29.4768 28.6033 29.7032C28.9684 29.9296 29.2627 30.2547 29.4527 30.6411Z" fill="white"/>
<path d="M25.4397 24.6309L24.5195 21.8547C24.1276 20.6713 23.4058 19.6253 22.4399 18.8415C21.4739 18.0578 20.3044 17.5688 19.07 17.4328C17.8356 17.2968 16.5883 17.5194 15.4761 18.0743C14.364 18.6291 13.4337 19.4929 12.7957 20.563C12.215 21.536 11.9082 22.6493 11.908 23.7839C11.9087 25.3362 12.2777 26.8661 12.9844 28.2466C13.6912 29.627 14.7153 30.8185 15.9718 31.7219L16.2186 31.8992C16.5567 31.3094 16.9331 30.7427 17.3456 30.2028C19.4089 27.5537 22.2355 25.608 25.4397 24.6309ZM15.1556 22.8358C15.1556 22.1906 15.3461 21.5597 15.7029 21.0233C16.0598 20.4867 16.567 20.0687 17.1604 19.8218C17.7538 19.5749 18.4068 19.5102 19.0368 19.6361C19.6667 19.7621 20.2455 20.0728 20.6997 20.529C21.1538 20.9852 21.4631 21.5664 21.5885 22.1993C21.7137 22.832 21.6495 23.488 21.4037 24.0841C21.1579 24.6802 20.7415 25.1896 20.2076 25.5481C19.6734 25.9066 19.0455 26.0979 18.4032 26.0979C17.5419 26.0979 16.7159 25.7543 16.1068 25.1424C15.4978 24.5306 15.1556 23.7009 15.1556 22.8358Z" fill="white"/>
<path d="M13.0263 8.60791C10.4833 9.65825 8.23859 11.3244 6.49234 13.4578C4.74608 15.5912 3.55254 18.1255 3.01815 20.8347L2.89581 21.4491C3.15852 21.6414 3.4747 21.746 3.79975 21.7482C4.09472 21.7562 4.38643 21.6846 4.64446 21.5408C4.90246 21.397 5.11731 21.1862 5.26659 20.9304L7.09176 17.7867C7.57471 16.1617 8.35238 14.6402 9.38567 13.299L13.0263 8.60791Z" fill="white"/>
<path d="M15.357 5.60588L18.1932 1.95001C18.6229 1.34175 19.1217 0.78595 19.6795 0.293888C18.9672 0.0382639 18.205 -0.0457123 17.4543 0.0487256C16.7037 0.143164 15.9857 0.413377 15.3581 0.837594L2.56021 9.67824C1.76998 10.2237 1.1239 10.9544 0.677828 11.8069C0.231753 12.6595 -0.000892406 13.6084 2.57246e-06 14.5716C0.000947277 15.5497 0.226946 16.5143 0.660355 17.3901L1.32179 18.7201C2.27634 15.4712 4.08273 12.5398 6.55187 10.2327C9.02102 7.92557 12.0622 6.32754 15.357 5.60588Z" fill="white"/>
<path d="M34.2159 40.3841C34.0862 39.7283 33.7339 39.1378 33.2194 38.7136C32.7047 38.2893 32.0596 38.0573 31.3938 38.0573C30.7279 38.0573 30.0828 38.2893 29.5683 38.7136C29.0536 39.1378 28.7013 39.7283 28.5717 40.3841C28.2399 42.0545 27.4224 43.5882 26.2224 44.7914L23.2531 47.7743C23.59 47.8197 23.9295 47.8437 24.2695 47.8461C25.2869 47.8463 26.2978 47.6814 27.2628 47.3577C28.4496 46.9605 29.6924 46.7581 30.9435 46.7586H31.8507C33.1016 46.7581 34.3444 46.9605 35.5313 47.3577C36.4942 47.6807 37.5027 47.8455 38.518 47.8461C38.8581 47.8437 39.1976 47.8197 39.5345 47.7743L36.5651 44.7914C35.3651 43.5882 34.5476 42.0545 34.2159 40.3841Z" fill="white"/>
<path d="M60.2273 9.67803L47.4285 0.839568C46.8004 0.415325 46.082 0.14511 45.3309 0.0506753C44.5801 -0.0437595 43.8176 0.0402239 43.1047 0.295864C43.6753 0.800821 44.1856 1.37043 44.6257 1.99331L47.4294 5.60568C50.724 6.3267 53.765 7.92395 56.2345 10.2303C58.7038 12.5366 60.5105 15.4673 61.4657 18.7154L62.1273 17.3856C62.5599 16.5111 62.7859 15.548 62.7876 14.5714C62.7885 13.6082 62.5558 12.6593 62.1097 11.8068C61.6637 10.9542 61.0176 10.2235 60.2273 9.67803Z" fill="white"/>
<path d="M38.9466 27.605C38.9575 27.7136 38.9716 27.829 38.9716 27.9432C38.9707 28.8948 38.5941 29.8074 37.9244 30.4807C37.2548 31.154 36.3467 31.5332 35.3992 31.5348C35.3738 31.5343 35.3486 31.541 35.3269 31.5542C35.3053 31.5676 35.2879 31.5869 35.2768 31.6098C35.0086 32.1529 34.6141 32.6228 34.1266 32.9801C33.6389 33.3373 33.0729 33.5711 32.4763 33.6619V36.0173C33.4307 36.2282 34.3036 36.7129 34.9891 37.4124C35.6748 38.1118 36.1436 38.9961 36.3388 39.9579C36.5868 41.207 37.1983 42.354 38.0957 43.2539L41.9074 47.0848C43.2926 46.4364 44.465 45.4046 45.2872 44.1105C46.1096 42.8163 46.5472 41.3136 46.5494 39.7786C46.5446 36.7936 45.5548 33.8945 43.7347 31.5348C42.4482 29.8848 40.8128 28.5425 38.9466 27.605ZM37.889 34.7972V32.6223H40.0542V34.7972H37.889ZM41.1366 40.2342H38.9716V38.0593H41.1366V40.2342ZM44.3843 36.9719H42.2191V34.7972H44.3843V36.9719Z" fill="white"/>
<path d="M42.8861 3.28726C42.1808 2.27457 41.2433 1.44722 40.1527 0.875079C39.0622 0.302936 37.8507 0.00280141 36.6203 2.44299e-05C35.7915 -0.00229503 34.9704 0.160571 34.2046 0.479193C33.4389 0.797814 32.7436 1.26586 32.1591 1.85623C31.9524 2.05269 31.6784 2.16216 31.3938 2.16216C31.1091 2.16216 30.8352 2.05269 30.6285 1.85623C30.0439 1.26586 29.3486 0.797814 28.583 0.479193C27.8171 0.160571 26.9961 -0.00229503 26.1672 2.44299e-05C24.9452 0.000665535 23.7411 0.295771 22.6561 0.860573C21.5711 1.42537 20.6369 2.24339 19.9318 3.24593L11.0939 14.6366C9.52018 16.6705 8.66412 19.1723 8.66035 21.7483V28.5901C8.65812 31.1872 9.16996 33.7585 10.1661 36.155C11.1622 38.5514 12.6228 40.725 14.4628 42.5492C14.2066 41.6482 14.0754 40.7157 14.0731 39.7786C14.079 37.7507 14.4776 35.7434 15.2466 33.8685L14.7139 33.4869C13.178 32.3821 11.9259 30.9258 11.0615 29.2385C10.1971 27.5513 9.74507 25.6815 9.7429 23.7838C9.74279 22.2551 10.1563 20.755 10.9391 19.4439C11.7904 18.0185 13.0308 16.8682 14.5132 16.1293C15.9956 15.3905 17.6579 15.0941 19.3028 15.2754C20.9479 15.4567 22.5065 16.1081 23.7943 17.1522C25.0819 18.1963 26.0444 19.5894 26.5678 21.1665L27.3331 23.4739C28.2361 23.0566 29.2177 22.8389 30.2116 22.8357H32.576C33.5699 22.8389 34.5515 23.0566 35.4544 23.4739L36.2197 21.1665C36.7426 19.5883 37.7051 18.194 38.9933 17.1489C40.2813 16.1038 41.841 15.4519 43.4868 15.2705C45.1328 15.089 46.7958 15.3857 48.279 16.1252C49.762 16.8648 51.0028 18.0163 51.8538 19.443C52.6347 20.755 53.0462 22.2553 53.0447 23.7838C53.0425 25.6813 52.5906 27.5511 51.7262 29.2381C50.8616 30.9252 49.6096 32.3812 48.0736 33.4858L47.542 33.8685C48.3101 35.7436 48.7083 37.7509 48.7144 39.7786C48.7122 40.7157 48.5809 41.6482 48.3247 42.5492C50.1648 40.725 51.6253 38.5514 52.6215 36.155C53.6176 33.7585 54.1293 31.1872 54.1271 28.5901V21.7483C54.1234 19.1723 53.2674 16.6705 51.6936 14.6366L42.8861 3.28726ZM37.889 6.52448H36.6203C35.7915 6.52216 34.9704 6.68502 34.2046 7.00365C33.4389 7.32227 32.7436 7.79033 32.1591 8.38069C31.9561 8.58456 31.6809 8.69907 31.3938 8.69907C31.1067 8.69907 30.8315 8.58456 30.6285 8.38069C30.0439 7.79033 29.3486 7.32227 28.583 7.00365C27.8171 6.68502 26.9961 6.52216 26.1672 6.52448H24.8985V4.34966H26.1672C28.0629 4.34387 29.9047 4.98192 31.3938 6.1602C32.8829 4.98192 34.7247 4.34387 36.6203 4.34966H37.889V6.52448Z" fill="white"/>
<path d="M49.7601 8.60693L53.4018 13.2991C54.4355 14.64 55.2134 16.1616 55.6959 17.7868L57.521 20.9305C57.6362 21.128 57.791 21.2994 57.9755 21.4337C58.1601 21.568 58.3704 21.6624 58.5932 21.7109C58.8158 21.7593 59.0462 21.7608 59.2696 21.7152C59.4929 21.6696 59.7045 21.5779 59.8906 21.446L59.7695 20.8348C59.2344 18.1256 58.0405 15.5913 56.2941 13.4578C54.5477 11.3243 52.3031 9.65789 49.7601 8.60693Z" fill="white"/>
<path d="M50.8796 23.7838C50.8798 22.6493 50.5729 21.536 49.9918 20.5629C49.3532 19.4941 48.4229 18.6318 47.3111 18.0779C46.1994 17.5241 44.9529 17.3021 43.7194 17.4383C42.4859 17.5745 41.317 18.0632 40.3516 18.8463C39.3861 19.6295 38.6645 20.6744 38.2722 21.8569L37.3478 24.6308C40.5502 25.6068 43.3754 27.5507 45.4387 30.1974C45.8514 30.7371 46.2279 31.3038 46.5656 31.8937L46.8125 31.7164C48.069 30.8137 49.0932 29.6234 49.8003 28.2439C50.5077 26.8643 50.8775 25.3356 50.8796 23.7838ZM44.3843 26.0978C43.742 26.0978 43.1141 25.9066 42.5799 25.5481C42.046 25.1895 41.6296 24.6801 41.3838 24.0841C41.1381 23.488 41.0738 22.832 41.199 22.1992C41.3244 21.5663 41.6337 20.9851 42.0878 20.5289C42.542 20.0727 43.1208 19.762 43.7507 19.6361C44.3806 19.5101 45.0337 19.5748 45.6271 19.8217C46.2205 20.0686 46.7278 20.4867 47.0845 21.0232C47.4414 21.5596 47.6318 22.1905 47.6318 22.8357C47.6318 23.7008 47.2898 24.5306 46.6808 25.1423C46.0716 25.7542 45.2455 26.0978 44.3843 26.0978Z" fill="white"/>
<path d="M75.2339 28.0558V26.5674C75.2339 26.0465 75.0857 25.3395 74.7524 24.8558C74.5671 24.5953 74.0115 23.9256 72.8261 23.9256C71.863 23.9256 71.2703 24.3349 70.8999 24.7814C70.3072 25.5256 70.2702 26.4558 70.2702 27.3488V40.186C70.2702 41.0418 70.2702 41.8232 70.7517 42.493C71.011 42.8651 71.6037 43.4232 72.6409 43.4232C73.4559 43.4232 74.2708 43.1256 74.7153 42.5302C74.9005 42.2698 75.2339 41.6744 75.2339 40.4093V39.4791H78.9382V40.5581C78.9382 43.1256 78.0492 44.6139 77.3824 45.3209C76.6045 46.1767 75.0857 47.0698 72.5298 47.0698C70.085 47.0698 68.6773 46.0651 67.8624 45.0977C66.5289 43.5349 66.5659 41.7488 66.5659 40.4093V26.9023C66.5659 25.1907 66.7882 23.2558 68.4551 21.8046C69.6034 20.7628 71.3074 20.2791 72.678 20.2791C74.2338 20.2791 76.0489 20.8744 77.1601 21.9535C78.0862 22.8837 78.8271 24.4465 78.8271 26.2697V28.0558H75.2339ZM104.125 36.1674L107.2 37.0232C107.015 37.9163 106.681 38.9209 106.311 39.8511C105.903 40.893 105.459 41.5628 104.792 42.307L107.57 46.6977H103.607L102.347 44.6884C101.903 45.1721 101.236 45.8046 100.569 46.1767C99.4949 46.7721 97.9762 47.0698 96.6056 47.0698C94.3089 47.0698 92.7902 46.4372 91.5307 44.9488C90.4935 43.7581 89.9749 42.4186 89.9749 40.6325C89.9749 38.9581 90.3453 37.1721 91.2714 35.7953C91.9382 34.7907 93.2347 33.5256 94.3089 32.707C93.9014 32.1116 93.3088 31.2186 92.8643 30.4C92.1975 29.2093 91.6418 27.907 91.6418 25.786C91.6418 24.186 92.0493 22.8837 93.1606 21.8046C94.4571 20.5023 96.0499 20.2791 97.4205 20.2791C99.1245 20.2791 100.347 20.7256 101.236 21.3209C102.421 22.1395 103.236 23.4046 103.236 25.3767C103.236 27.0884 102.607 28.5395 101.68 29.8046C100.903 30.8837 99.606 32.0744 98.68 32.8558L102.866 39.5163C103.347 38.8837 103.458 38.4744 103.644 37.9163C103.829 37.3209 103.977 36.9488 104.125 36.1674ZM100.421 42.1581L96.2351 35.4232C95.6054 35.907 94.9386 36.6511 94.5312 37.2093C93.9385 38.0651 93.6792 38.9953 93.6792 40.2232C93.6792 40.893 93.7903 41.6744 94.3089 42.4186C95.0498 43.4977 96.087 43.7209 97.0871 43.7209C98.0502 43.7209 98.68 43.4977 99.3097 43.1256C99.8283 42.8279 100.125 42.6046 100.421 42.1581ZM96.5685 29.5814L97.1242 30.3256C98.3466 29.2465 98.9022 28.2418 99.1986 27.5349C99.4949 26.9023 99.6801 26.2697 99.6801 25.5628C99.6801 24.6697 99.3467 24.1116 99.0504 23.8139C98.6059 23.3674 98.0502 23.2186 97.4576 23.2186C96.6426 23.2186 96.124 23.5535 95.8647 23.8139C95.235 24.4093 95.198 25.2279 95.198 25.7488C95.198 27.4977 96.087 28.9488 96.5685 29.5814ZM118.262 20.6511H123.263C124.374 20.6511 126.523 20.7628 128.153 21.9163C130.486 23.5907 130.523 26.3814 130.523 27.907C130.523 29.6186 130.375 30.8093 129.412 31.9628C128.93 32.5581 128.375 32.9302 128.004 33.1535C129.005 33.6 129.449 34.2325 129.782 34.7907C130.523 36.093 130.523 36.8 130.523 38.0651V40.0372C130.523 41.1163 130.523 43.7953 128.301 45.4697C127.486 46.1023 126.115 46.6977 123.893 46.6977H118.262V20.6511ZM121.966 24V31.4418H123.744C125.004 31.4418 125.745 30.9209 126.115 30.4744C126.56 29.9535 126.819 29.0604 126.819 28.2418V26.6418C126.819 25.9721 126.523 25.3023 126.115 24.8558C125.671 24.4093 124.93 24 123.707 24H121.966ZM121.966 34.7907V43.3488H123.633C124.189 43.3488 125.374 43.2744 126.152 42.1953C126.782 41.3395 126.819 40 126.819 39.5535V38.3256C126.819 37.0604 126.634 36.1674 125.819 35.4604C125.226 34.9767 124.67 34.7907 123.856 34.7907H121.966ZM151.816 28.0558V26.5674C151.816 26.0465 151.667 25.3395 151.334 24.8558C151.149 24.5953 150.593 23.9256 149.408 23.9256C148.445 23.9256 147.852 24.3349 147.482 24.7814C146.889 25.5256 146.852 26.4558 146.852 27.3488V40.186C146.852 41.0418 146.852 41.8232 147.333 42.493C147.593 42.8651 148.185 43.4232 149.223 43.4232C150.038 43.4232 150.853 43.1256 151.297 42.5302C151.482 42.2698 151.816 41.6744 151.816 40.4093V39.4791H155.52V40.5581C155.52 43.1256 154.631 44.6139 153.964 45.3209C153.186 46.1767 151.667 47.0698 149.112 47.0698C146.667 47.0698 145.259 46.0651 144.444 45.0977C143.111 43.5349 143.148 41.7488 143.148 40.4093V26.9023C143.148 25.1907 143.37 23.2558 145.037 21.8046C146.185 20.7628 147.889 20.2791 149.26 20.2791C150.815 20.2791 152.631 20.8744 153.742 21.9535C154.668 22.8837 155.409 24.4465 155.409 26.2697V28.0558H151.816ZM159.022 40.7442V34.1953C159.022 32.7442 159.133 30.6977 160.837 29.2465C161.837 28.3907 163.245 27.9442 164.616 27.9442C165.986 27.9442 167.394 28.3907 168.394 29.2465C170.098 30.6977 170.209 32.7442 170.209 34.1953V40.7442C170.209 42.1953 170.098 44.2418 168.394 45.693C167.394 46.5488 165.986 46.9953 164.616 46.9953C163.245 46.9953 161.837 46.5488 160.837 45.693C159.133 44.2418 159.022 42.1953 159.022 40.7442ZM166.505 40.9674V33.9721C166.505 33.1163 166.283 32.4837 165.949 32.1116C165.653 31.8139 165.171 31.5907 164.616 31.5907C164.06 31.5907 163.578 31.8139 163.282 32.1116C162.949 32.4837 162.726 33.1163 162.726 33.9721V40.9674C162.726 41.8232 162.949 42.4558 163.282 42.8279C163.578 43.1256 164.06 43.3488 164.616 43.3488C165.171 43.3488 165.653 43.1256 165.949 42.8279C166.283 42.4558 166.505 41.8232 166.505 40.9674ZM174.074 20.6511H177.779V41.4511C177.779 41.8977 177.853 42.4558 178.297 42.8651C178.668 43.2 179.186 43.2372 179.483 43.2372H179.853V46.6977H178.779C177.927 46.6977 176.149 46.586 175 45.1349C174.111 44.0186 174.074 42.7163 174.074 41.6372V20.6511ZM182.611 20.6511H186.316V41.4511C186.316 41.8977 186.39 42.4558 186.835 42.8651C187.205 43.2 187.724 43.2372 188.02 43.2372H188.39V46.6977H187.316C186.464 46.6977 184.686 46.586 183.537 45.1349C182.648 44.0186 182.611 42.7163 182.611 41.6372V20.6511ZM198.446 46.6977V44.8744H198.372C198.112 45.2837 197.631 45.8791 197.112 46.2884C196.408 46.8465 195.742 46.9953 194.964 46.9953C194.223 46.9953 193.074 46.8837 192.148 46.0279C191 44.9488 190.815 43.2744 190.815 41.786C190.815 40.4465 190.889 38.4372 191.963 37.1721C193.186 35.7209 195.26 35.5721 196.334 35.5721C196.594 35.5721 197.297 35.5721 198.446 35.6837V33.7488C198.446 33.2279 198.409 32.6698 197.964 32.186C197.594 31.7767 197.038 31.5907 196.482 31.5907C195.964 31.5907 195.408 31.7767 195.001 32.2604C194.741 32.5581 194.556 32.9674 194.519 33.4511H191C190.963 31.7767 191.667 30.3256 192.519 29.4697C193.445 28.5395 194.964 27.9442 196.668 27.9442C198.335 27.9442 199.705 28.5395 200.631 29.4325C201.965 30.7721 202.15 32.5209 202.15 33.786V46.6977H198.446ZM198.446 41.2651V38.6604C198.001 38.586 197.557 38.5488 197.149 38.5488C196.556 38.5488 195.667 38.6232 195.075 39.3302C194.593 39.8884 194.519 40.6698 194.519 41.2651C194.519 41.786 194.593 42.307 194.89 42.7907C195.26 43.386 195.742 43.6465 196.371 43.6465C197.483 43.6465 198.446 42.9023 198.446 41.2651ZM209.866 46.6977H206.162V20.6511H209.866V29.7302C210.199 29.3209 210.607 28.9488 211.088 28.6511C211.755 28.2418 212.459 27.9442 213.533 27.9442C214.607 27.9442 215.534 28.2418 216.274 29.0232C217.237 30.0279 217.349 31.2558 217.349 32.1488V41.7488C217.349 42.9395 217.312 44.4651 216.497 45.5814C216.2 45.9907 215.274 46.9953 213.422 46.9953C212.681 46.9953 211.829 46.8093 211.162 46.3628C210.681 46.0279 210.199 45.5442 209.903 45.0604H209.866V46.6977ZM209.866 34.0465V40.893C209.866 41.4884 209.903 42.1581 210.459 42.7535C210.718 43.0139 211.162 43.3488 211.866 43.3488C212.422 43.3488 212.829 43.1628 213.163 42.7907C213.644 42.2698 213.644 41.7488 213.644 41.1163V33.6372C213.644 33.1907 213.607 32.6325 213.163 32.1488C212.829 31.7767 212.422 31.5907 211.866 31.5907C211.162 31.5907 210.718 31.9256 210.459 32.186C209.903 32.7814 209.866 33.4511 209.866 34.0465ZM231.801 33.2279H228.171C228.134 32.6698 227.911 32.186 227.615 31.8884C227.282 31.5535 226.8 31.4046 226.282 31.4046C225.355 31.4046 224.466 32 224.466 33.2651C224.466 33.6 224.541 34.0465 224.837 34.4558C225.207 34.9767 225.8 35.2372 226.282 35.4232L228.504 36.3535C229.43 36.7256 230.356 37.4698 230.875 38.1395C231.393 38.8093 231.801 39.9256 231.801 41.5256C231.801 42.4186 231.616 43.907 230.616 45.1349C229.838 46.1023 228.467 46.9953 226.133 46.9953C223.911 46.9953 222.577 46.1767 221.836 45.3581C220.91 44.3535 220.466 42.8651 220.466 41.5256H224.17C224.17 42.0093 224.318 42.5674 224.652 42.9395C224.985 43.3116 225.652 43.5349 226.17 43.5349C226.689 43.5349 227.245 43.3488 227.615 42.9023C228.023 42.4558 228.097 41.8977 228.097 41.4139C228.097 40.4465 227.8 39.7395 226.244 39.0698L224.059 38.1395C222.651 37.5442 221.985 36.8372 221.762 36.5767C220.947 35.6093 220.762 34.3814 220.762 33.4511C220.762 31.6279 221.355 30.2511 222.133 29.4325C222.874 28.6884 224.096 27.9442 226.096 27.9442C228.43 27.9442 229.764 28.7628 230.393 29.4325C231.282 30.3256 231.801 31.7767 231.801 33.2279Z" fill="white"/>
</g>
<defs>
<clipPath id="clip0_138_26">
<rect width="238" height="48" fill="white"/>
</clipPath>
</defs>
</svg>
