<svg width="60" height="60" viewBox="0 0 60 60" fill="none" xmlns="http://www.w3.org/2000/svg">
<path d="M52.8516 14.0625V22.9688C52.8516 23.9529 52.0784 24.7266 51.0938 24.7266H8.90625C7.9216 24.7266 7.14844 23.9529 7.14844 22.9688V1.75781C7.14844 0.773163 7.9216 0 8.90625 0H38.7891L52.8516 14.0625Z" fill="#ECECF1"/>
<path d="M52.8516 14.0625V22.9688C52.8516 23.9529 52.0784 24.7266 51.0938 24.7266H30V0H38.7891L52.8516 14.0625Z" fill="#E2E2E7"/>
<path d="M52.8516 51.0938V58.2422C52.8516 59.2264 52.0784 60 51.0938 60H8.90625C7.9216 60 7.14844 59.2264 7.14844 58.2422V51.0938C7.14844 50.1091 7.9216 49.3359 8.90625 49.3359H51.0938C52.0784 49.3359 52.8516 50.1091 52.8516 51.0938Z" fill="#ECECF1"/>
<path d="M52.8516 51.0938V58.2422C52.8516 59.2264 52.0784 60 51.0938 60H30V49.3359H51.0938C52.0784 49.3359 52.8516 50.1091 52.8516 51.0938Z" fill="#E2E2E7"/>
<path d="M52.3343 11.0596L41.792 0.517273C41.4766 0.200958 40.8632 0 40.5469 0H38.7891V12.3047C38.7891 13.2756 39.576 14.0625 40.5469 14.0625H52.8516V12.3047C52.8516 11.9902 52.6515 11.3759 52.3343 11.0596Z" fill="#BABAC0"/>
<path d="M51.0938 21.2109H8.90625C5.98801 21.2109 3.63281 23.5661 3.63281 26.4844V47.5781C3.63281 50.4959 5.98801 52.8516 8.90625 52.8516H51.0938C54.012 52.8516 56.3672 50.4959 56.3672 47.5781V26.4844C56.3672 23.5661 54.012 21.2109 51.0938 21.2109Z" fill="#FF7816"/>
<path d="M56.3672 26.4844V47.5781C56.3672 50.4959 54.012 52.8516 51.0938 52.8516H30V21.2109H51.0938C54.012 21.2109 56.3672 23.5661 56.3672 26.4844Z" fill="#FF4B00"/>
<path d="M15.9375 45.8203C13.0298 45.8203 10.6641 43.4546 10.6641 40.5469V33.5156C10.6641 30.6079 13.0298 28.2422 15.9375 28.2422C18.8452 28.2422 21.2109 30.6079 21.2109 33.5156C21.2109 34.487 20.4245 35.2734 19.4531 35.2734C18.4818 35.2734 17.6953 34.487 17.6953 33.5156C17.6953 32.5456 16.9075 31.7578 15.9375 31.7578C14.9675 31.7578 14.1797 32.5456 14.1797 33.5156V40.5469C14.1797 41.5169 14.9675 42.3047 15.9375 42.3047C16.9075 42.3047 17.6953 41.5169 17.6953 40.5469C17.6953 39.5755 18.4818 38.7891 19.4531 38.7891C20.4245 38.7891 21.2109 39.5755 21.2109 40.5469C21.2109 43.4546 18.8452 45.8203 15.9375 45.8203Z" fill="#ECECF1"/>
<path d="M35.2734 40.5469C35.2734 43.4647 32.9182 45.8203 30 45.8203C27.0818 45.8203 24.7266 43.4647 24.7266 40.5469C24.7266 39.5622 25.4997 38.7891 26.4844 38.7891C27.469 38.7891 28.2422 39.5622 28.2422 40.5469C28.2422 41.5311 29.0154 42.3047 30 42.3047C30.9846 42.3047 31.7578 41.5311 31.7578 40.5469C31.7578 39.5622 30.9846 38.7891 30 38.7891C27.0818 38.7891 24.7266 36.4334 24.7266 33.5156C24.7266 30.5974 27.0818 28.2422 30 28.2422C32.9182 28.2422 35.2734 30.5974 35.2734 33.5156C35.2734 34.4998 34.5003 35.2734 33.5156 35.2734C32.531 35.2734 31.7578 34.4998 31.7578 33.5156C31.7578 32.531 30.9846 31.7578 30 31.7578C29.0154 31.7578 28.2422 32.531 28.2422 33.5156C28.2422 34.4998 29.0154 35.2734 30 35.2734C32.9182 35.2734 35.2734 37.6286 35.2734 40.5469Z" fill="#ECECF1"/>
<path d="M44.0625 45.8203C41.1548 45.8203 38.7891 43.4546 38.7891 40.5469C38.7891 39.5755 39.5755 38.7891 40.5469 38.7891C41.5182 38.7891 42.3047 39.5755 42.3047 40.5469C42.3047 41.5169 43.0925 42.3047 44.0625 42.3047C45.0325 42.3047 45.8203 41.5169 45.8203 40.5469C45.8203 39.5769 45.0325 38.7891 44.0625 38.7891C41.1548 38.7891 38.7891 36.4233 38.7891 33.5156C38.7891 30.6079 41.1548 28.2422 44.0625 28.2422C46.9702 28.2422 49.3359 30.6079 49.3359 33.5156C49.3359 34.487 48.5495 35.2734 47.5781 35.2734C46.6068 35.2734 45.8203 34.487 45.8203 33.5156C45.8203 32.5456 45.0325 31.7578 44.0625 31.7578C43.0925 31.7578 42.3047 32.5456 42.3047 33.5156C42.3047 34.4856 43.0925 35.2734 44.0625 35.2734C46.9702 35.2734 49.3359 37.6392 49.3359 40.5469C49.3359 43.4546 46.9702 45.8203 44.0625 45.8203Z" fill="#E2E2E7"/>
<path d="M35.2734 40.5469C35.2734 43.4647 32.9182 45.8203 30 45.8203V42.3047C30.9846 42.3047 31.7578 41.5311 31.7578 40.5469C31.7578 39.5622 30.9846 38.7891 30 38.7891V35.2734C32.9182 35.2734 35.2734 37.6286 35.2734 40.5469Z" fill="#E2E2E7"/>
<path d="M30 31.7578V28.2422C32.9182 28.2422 35.2734 30.5974 35.2734 33.5156C35.2734 34.4998 34.5003 35.2734 33.5156 35.2734C32.531 35.2734 31.7578 34.4998 31.7578 33.5156C31.7578 32.531 30.9846 31.7578 30 31.7578Z" fill="#E2E2E7"/>
</svg>
