<svg width="24" height="24" viewBox="0 0 24 24" fill="none" xmlns="http://www.w3.org/2000/svg">
<path d="M15.9459 2.43345C16.1398 2.23518 16.2072 1.92332 16.1114 1.66021C16.0123 1.3877 15.773 1.1981 15.4842 1.16486C13.9677 1.00384 12.47 1.18711 11.0229 1.71382C5.8452 3.59835 3.16165 9.35324 5.04618 14.5309C6.93072 19.7087 12.6856 22.3922 17.8633 20.5077C19.3104 19.981 20.5755 19.1587 21.6337 18.0605C21.8336 17.8495 21.895 17.5504 21.7958 17.2779C21.7 17.0148 21.448 16.8192 21.172 16.7919C17.9552 16.4623 15.172 14.2828 14.0672 11.2476C12.9625 8.21235 13.6937 4.75369 15.9459 2.43345Z" fill="black"/>
</svg>
