<svg width="60" height="60" viewBox="0 0 60 60" fill="none" xmlns="http://www.w3.org/2000/svg">
<path d="M30 5C25.0555 5 20.222 6.46622 16.1108 9.21326C11.9995 11.9603 8.79521 15.8648 6.90302 20.4329C5.01083 25.0011 4.51575 30.0277 5.48038 34.8773C6.44501 39.7268 8.82603 44.1814 12.3223 47.6777C15.8187 51.174 20.2732 53.555 25.1228 54.5196C29.9723 55.4843 34.9989 54.9892 39.5671 53.097C44.1353 51.2048 48.0397 48.0005 50.7867 43.8893C53.5338 39.778 55 34.9445 55 30C55 23.3696 52.3661 17.0107 47.6777 12.3223C42.9893 7.63392 36.6304 5 30 5V5ZM43.7 39.35C42.8046 39.5445 41.8913 39.645 40.975 39.65C40.323 39.6522 39.68 39.4978 39.1 39.2C38.9058 39.0638 38.722 38.9134 38.55 38.75C37.954 38.2296 37.2677 37.8229 36.525 37.55C35.7018 37.3132 34.8251 37.3402 34.018 37.6271C33.2109 37.9141 32.5139 38.4466 32.025 39.15C31.7559 39.5905 31.5378 40.0602 31.375 40.55C31.375 40.725 31.2 41.025 31.15 41.1C30.8913 41.2581 30.6142 41.384 30.325 41.475L29.675 41.75C28.4778 42.2837 27.4516 43.1385 26.7103 44.2196C25.969 45.3006 25.5414 46.5658 25.475 47.875C25.475 48.7 25.475 49.525 25.475 50.375V50.8C20.9777 49.819 16.9185 47.4091 13.9039 43.9305C10.8894 40.4518 9.08137 36.0912 8.75001 31.5C10.7753 32.1401 12.9379 32.2093 15 31.7C15.9035 31.5029 16.8253 31.4023 17.75 31.4C18.3978 31.3925 19.036 31.5564 19.6 31.875L20.175 32.3C20.7634 32.8309 21.4518 33.2388 22.2 33.5C22.5662 33.6022 22.9448 33.6527 23.325 33.65C23.9863 33.6483 24.6376 33.4886 25.2247 33.1842C25.8118 32.8798 26.3176 32.4395 26.7 31.9C26.9691 31.4595 27.1872 30.9898 27.35 30.5C27.3771 30.3273 27.4275 30.1591 27.5 30C27.7561 29.8371 28.0338 29.7109 28.325 29.625L28.95 29.35C30.1473 28.8163 31.1734 27.9615 31.9147 26.8804C32.656 25.7994 33.0836 24.5341 33.15 23.225C33.2 22.3924 33.2 21.5576 33.15 20.725V19.95C33.15 19.7 33.15 19.4 33.15 19.125C33.2161 18.3812 33.174 17.6317 33.025 16.9C32.8794 16.3208 32.6521 15.7652 32.35 15.25C32.2114 15.0108 32.0943 14.7599 32 14.5C31.9581 14.4144 31.9363 14.3203 31.9363 14.225C31.9363 14.1297 31.9581 14.0356 32 13.95C32.2671 13.6979 32.5705 13.4872 32.9 13.325C33.538 12.9705 34.1264 12.5334 34.65 12.025C35.2657 11.3361 35.7488 10.5394 36.075 9.675C39.0356 10.5522 41.7692 12.0649 44.0849 14.1074C46.4007 16.1499 48.2429 18.6731 49.4831 21.5009C50.7232 24.3288 51.3315 27.3931 51.2653 30.4803C51.1991 33.5674 50.4602 36.6029 49.1 39.375C47.3219 38.9858 45.4816 38.9773 43.7 39.35Z" fill="white"/>
</svg>
