<svg width="60" height="60" viewBox="0 0 60 60" fill="none" xmlns="http://www.w3.org/2000/svg">
<path d="M5.33386 54.3236H54.6662V20.9744C54.6662 19.5582 53.5182 18.4103 52.1021 18.4103H7.89796C6.48181 18.4103 5.33386 19.5582 5.33386 20.9744V54.3236Z" fill="#39484C"/>
<path d="M49.82 23.1409V49.5931H10.18V23.1409H49.82Z" fill="white"/>
<path d="M35.3832 43.2884H34.6396C34.2855 43.2884 33.9986 43.0015 33.9986 42.6474C33.9986 42.2933 34.2855 42.0063 34.6396 42.0063H35.3832C35.7373 42.0063 36.0242 42.2933 36.0242 42.6474C36.0242 43.0015 35.7373 43.2884 35.3832 43.2884Z" fill="#D6D6D6"/>
<path d="M31.6212 43.2884H14.8414C14.4873 43.2884 14.2004 43.0015 14.2004 42.6474C14.2004 42.2933 14.4873 42.0063 14.8414 42.0063H31.6212C31.9753 42.0063 32.2622 42.2933 32.2622 42.6474C32.2622 43.0015 31.9751 43.2884 31.6212 43.2884Z" fill="#D6D6D6"/>
<path d="M2.30768 54.3236H57.6923V57.4359C57.6923 58.8521 56.5443 60 55.1282 60H4.87178C3.45563 60 2.30768 58.8521 2.30768 57.4359V54.3236Z" fill="#617A7F"/>
<path d="M30.4044 35.9121L30.3988 35.9065C28.0398 33.5864 26.8422 30.3291 27.1259 27.0049L28.0289 11.1828L33.0707 11.1454L33.8157 26.9512C34.05 30.2737 32.8016 33.5532 30.4044 35.9121Z" fill="#ED5132"/>
<path d="M28.0054 11.2408H28.012L33.0538 11.1914H33.0603C33.9347 10.5373 36.1934 7.90628 32.9362 4.9159C31.2393 3.35795 32.4915 0 32.4915 0C32.4915 0 26.1394 2.44167 26.5617 8.5191C26.6399 9.64423 27.1438 10.6036 28.0054 11.2408Z" fill="#FFDBB3"/>
<path d="M33.8507 11.1845L27.2755 11.2412L27.243 15.0169L33.8181 14.9604L33.8507 11.1845Z" fill="#FF8A80"/>
<path d="M45.1587 5.59872L41.8558 0L38.5967 5.6059L45.1587 5.60538V5.59872Z" fill="#FFDBB3"/>
<path d="M38.5965 5.60592L38.5964 5.60605V29.1839H45.1586V5.60541L38.5965 5.60592Z" fill="#5252FF"/>
<path d="M45.1586 32.7065V29.1838H38.5964V32.7065C38.5964 34.4767 40.0314 35.9117 41.8015 35.9117H41.9534C43.7236 35.9117 45.1586 34.4767 45.1586 32.7065Z" fill="#4646F9"/>
<path d="M14.8414 35.9119V0.00019455H22.716V35.9119H14.8414Z" fill="#FFBF4D"/>
<path d="M16.6906 13.6038H14.8414V14.9138H16.6906C17.053 14.9138 17.3468 14.6206 17.3468 14.2588C17.3468 13.897 17.053 13.6038 16.6906 13.6038Z" fill="white"/>
<path d="M17.7029 9.32617H14.8414V10.6362H17.7029C18.0653 10.6362 18.3591 10.343 18.3591 9.98117C18.3592 9.61938 18.0655 9.32617 17.7029 9.32617Z" fill="white"/>
<path d="M16.6906 5.04858H14.8414V6.35858H16.6906C17.053 6.35858 17.3468 6.06538 17.3468 5.70358C17.3468 5.34179 17.053 5.04858 16.6906 5.04858Z" fill="white"/>
<path d="M17.7029 17.8814H14.8414V19.1914H17.7029C18.0653 19.1914 18.3591 18.8982 18.3591 18.5364C18.3591 18.1746 18.0655 17.8814 17.7029 17.8814Z" fill="white"/>
<path d="M17.7029 26.5691H14.8632V27.8791H17.7029C18.0653 27.8791 18.3591 27.5859 18.3591 27.2241C18.3592 26.8623 18.0655 26.5691 17.7029 26.5691Z" fill="white"/>
<path d="M16.6906 22.1591H14.8414V23.4691H16.6906C17.053 23.4691 17.3468 23.1759 17.3468 22.8141C17.3468 22.4523 17.053 22.1591 16.6906 22.1591Z" fill="white"/>
<path d="M16.6906 30.8467H14.8633V32.1567H16.6906C17.053 32.1567 17.3467 31.8635 17.3467 31.5017C17.3467 31.1399 17.053 30.8467 16.6906 30.8467Z" fill="white"/>
<path d="M20.3501 3.03925C20.8061 3.03925 21.1758 2.67459 21.1758 2.22477C21.1758 1.77494 20.8061 1.41028 20.3501 1.41028C19.8941 1.41028 19.5245 1.77494 19.5245 2.22477C19.5245 2.67459 19.8941 3.03925 20.3501 3.03925Z" fill="white"/>
<path d="M59.1026 45.156C58.7485 45.156 58.4615 44.8691 58.4615 44.515V33.5724C58.4615 33.2183 58.7485 32.9314 59.1026 32.9314C59.4567 32.9314 59.7436 33.2183 59.7436 33.5724V44.515C59.7436 44.8691 59.4567 45.156 59.1026 45.156Z" fill="#D6D6D6"/>
<path d="M59.1026 31.2635C58.7485 31.2635 58.4615 30.9765 58.4615 30.6224V29.7368C58.4615 29.3827 58.7485 29.0958 59.1026 29.0958C59.4567 29.0958 59.7436 29.3827 59.7436 29.7368V30.6224C59.7436 30.9765 59.4567 31.2635 59.1026 31.2635Z" fill="#D6D6D6"/>
<path d="M0.897434 45.156C0.543332 45.156 0.256409 44.8691 0.256409 44.515V33.5724C0.256409 33.2183 0.543332 32.9314 0.897434 32.9314C1.25154 32.9314 1.53846 33.2183 1.53846 33.5724V44.515C1.53846 44.8691 1.25154 45.156 0.897434 45.156Z" fill="#D6D6D6"/>
<path d="M0.897434 31.2635C0.543332 31.2635 0.256409 30.9765 0.256409 30.6224V29.7368C0.256409 29.3827 0.543332 29.0958 0.897434 29.0958C1.25154 29.0958 1.53846 29.3827 1.53846 29.7368V30.6224C1.53846 30.9765 1.25154 31.2635 0.897434 31.2635Z" fill="#D6D6D6"/>
<path d="M55.3389 6.58436L56.3321 6.79488L55.1835 7.12065C54.5786 7.29218 54.1167 7.78206 53.9809 8.39603L53.768 9.35898L53.555 8.39603C53.4192 7.78206 52.9573 7.29218 52.3524 7.12065L51.2039 6.79488L52.1971 6.58436C52.8401 6.44808 53.348 5.95526 53.5035 5.31654L53.768 4.23077L54.0324 5.31667C54.188 5.95526 54.6958 6.44808 55.3389 6.58436Z" fill="#C2C2FF"/>
<path d="M7.80297 6.58436L8.79618 6.79488L7.64758 7.12065C7.04271 7.29218 6.58079 7.78206 6.44502 8.39603L6.23207 9.35898L6.01912 8.39603C5.88335 7.78206 5.42143 7.29218 4.81656 7.12065L3.66797 6.79488L4.66117 6.58436C5.30425 6.44808 5.81207 5.95526 5.96758 5.31654L6.23207 4.23077L6.49656 5.31667C6.65207 5.95526 7.16002 6.44808 7.80297 6.58436Z" fill="#FF8A80"/>
</svg>
