<svg width="512" height="512" viewBox="0 0 512 512" fill="none" xmlns="http://www.w3.org/2000/svg">
<path fill-rule="evenodd" clip-rule="evenodd" d="M93.063 116.909L122.719 449.542L255.8 486.486L389.249 449.489L418.938 116.909H93.063Z" fill="#E44D26"/>
<path fill-rule="evenodd" clip-rule="evenodd" d="M256 184.903H153.702L154.679 195.848L164.706 308.27H256V267.475H202.016L198.287 225.7H256V184.903ZM210.386 361.206L207.481 328.67H166.528L172.244 392.726L255.812 415.924L256 415.872V373.427L255.821 373.475L210.386 361.206Z" fill="#EBEBEB"/>
<path fill-rule="evenodd" clip-rule="evenodd" d="M256 144.106V458.208L363.832 428.313L389.203 144.106H256Z" fill="#F16529"/>
<path fill-rule="evenodd" clip-rule="evenodd" d="M255.858 308.271H306.094L301.358 361.181L255.858 373.462V415.904L339.492 392.725L340.106 385.833L349.693 278.43L350.688 267.475H255.858V308.271ZM255.858 184.903V225.7H354.4L355.218 216.53L357.077 195.848L358.052 184.903H255.858Z" fill="white"/>
<path fill-rule="evenodd" clip-rule="evenodd" d="M163.079 46.997H144.114V26.514H123.383V88.542H144.115V67.771H163.079V88.542H183.811V26.514H163.078L163.079 46.997ZM192.824 47.083H211.076V88.542H231.809V47.083H250.069V26.514H192.824V47.083ZM294.07 48.309L280.771 26.514H259.154V88.542H279.439V57.797L293.712 79.852H294.069L308.332 57.797V88.542H328.978V26.514H307.352L294.07 48.309ZM360.036 68.039V26.514H339.298V88.542H389.192V68.039H360.036Z" fill="white"/>
</svg>
