<svg width="60" height="60" viewBox="0 0 60 60" fill="none" xmlns="http://www.w3.org/2000/svg">
<path d="M0 8C0 3.58172 3.58172 0 8 0H52C56.4183 0 60 3.58172 60 8V52C60 56.4183 56.4183 60 52 60H8C3.58172 60 0 56.4183 0 52V8Z" fill="#FFDF00"/>
<path d="M37.9742 48.2291C39.27 47.4764 40.8651 47.9796 42.0057 48.9516C42.983 49.7846 44.2105 50.299 45.8667 50.299C48.2029 50.299 49.6952 49.1313 49.6952 47.518C49.6952 45.5847 48.162 44.8999 45.5905 43.7752L44.181 43.1704C40.1123 41.437 37.4095 39.2656 37.4095 34.6751C37.4095 30.4465 40.6315 27.2275 45.6667 27.2275C48.4053 27.2275 50.5558 27.9556 52.2465 29.7559C53.19 30.7605 52.7774 32.325 51.6177 33.0696V33.0696C50.359 33.8778 48.7838 33.2509 47.4642 32.5467C46.9441 32.2691 46.3579 32.1447 45.6667 32.1447C44.0153 32.1447 42.9686 33.1923 42.9686 34.5608C42.9686 36.2523 44.0162 36.937 46.4352 37.9847L47.8447 38.5885C52.6352 40.6428 55.3399 42.737 55.3399 47.4456C55.3399 52.5218 51.3523 55.3028 45.997 55.3028C41.9898 55.3028 39.0681 53.8414 37.1754 51.6895C36.21 50.5919 36.7103 48.9634 37.9742 48.2291V48.2291ZM17.939 48.8462C19.2788 48.0351 20.845 48.6886 22.0868 49.6431C22.5905 50.0302 23.2039 50.2638 24.0162 50.2638C25.8686 50.2638 27.0372 49.539 27.0372 46.721V30.3686C27.0372 28.8116 28.2993 27.5495 29.8562 27.5495V27.5495C31.4131 27.5495 32.6753 28.8116 32.6753 30.3686V46.7971C32.6753 52.6351 29.2525 55.2924 24.2562 55.2924C20.9398 55.2924 18.6489 54.0315 17.1394 52.2467C16.2212 51.161 16.7226 49.5826 17.939 48.8462V48.8462Z" fill="black"/>
</svg>
