<svg width="60" height="60" viewBox="0 0 60 60" fill="none" xmlns="http://www.w3.org/2000/svg">
<path d="M42.85 5H17.15C10.45 5 5 10.45 5 17.15V42.85C5 49.55 10.45 55 17.15 55H42.85C49.55 55 55 49.55 55 42.85V17.15C55 10.45 49.55 5 42.85 5ZM22.3 22.925C20.9 22.925 19.725 21.775 19.725 20.375C19.725 18.95 20.875 17.8 22.275 17.8H22.3C23.725 17.8 24.875 18.95 24.875 20.375C24.875 21.775 23.725 22.925 22.3 22.925ZM24.125 26.8V39.625C24.125 40.675 23.3 41.5 22.25 41.5C21.225 41.5 20.375 40.675 20.375 39.625V26.8C20.375 25.75 21.225 24.925 22.25 24.925C23.3 24.925 24.125 25.75 24.125 26.8ZM39.625 39.625C39.625 40.675 38.775 41.5 37.75 41.5C36.7 41.5 35.875 40.675 35.875 39.625V33.775C35.875 32.2 35.55 31.925 35.3 31.7C35 31.425 34.475 31.25 33.825 31.225C33.3 31.25 32.775 31.425 32.475 31.7C32.225 31.925 31.9 32.2 31.9 33.775V39.625C31.9 40.675 31.075 41.5 30.025 41.5C29 41.5 28.15 40.675 28.15 39.625V33.775C28.15 31.5 28.7 30.05 29.975 28.9C30.95 28.025 32.275 27.55 33.825 27.475C35.5 27.55 36.825 28.025 37.825 28.9C39.075 30.05 39.625 31.5 39.625 33.775V39.625Z" fill="white"/>
</svg>
