<svg width="102" height="102" viewBox="0 0 102 102" fill="none" xmlns="http://www.w3.org/2000/svg">
<g clip-path="url(#clip0_181_29)">
<path d="M68.9297 0C64.7025 0 60.5729 1.06203 56.9871 3.07135C53.294 5.14104 48.7058 5.14124 45.0131 3.07156C41.4271 1.06203 37.2975 0 33.0703 0C20.4377 0 10.1602 9.3838 10.1602 20.918C10.1602 25.6964 11.973 30.3677 15.2645 34.0706C18.1062 37.268 20.3237 41.2269 21.8549 45.8372C25.9333 58.1151 37.1009 65.7422 51 65.7422C64.8991 65.7422 76.0667 58.1151 80.1451 45.8374C81.6765 41.2269 83.8938 37.2681 86.7357 34.0708C90.027 30.3677 91.8398 25.6964 91.8398 20.918C91.8398 9.3838 81.5623 0 68.9297 0Z" fill="black" fill-opacity="0.04"/>
<path d="M64.9453 70.125C58.8012 70.125 53.9883 77.1257 53.9883 86.0625C53.9883 94.9993 58.8012 102 64.9453 102C71.0894 102 75.9023 94.9993 75.9023 86.0625C75.9023 77.1257 71.0894 70.125 64.9453 70.125Z" fill="black" fill-opacity="0.04"/>
<path d="M91.043 52.1953C84.8989 52.1953 80.0859 59.1961 80.0859 68.1328C80.0859 77.0696 84.8989 84.0703 91.043 84.0703C97.1871 84.0703 102 77.0696 102 68.1328C102 59.1961 97.1871 52.1953 91.043 52.1953Z" fill="black" fill-opacity="0.04"/>
<path d="M37.0547 70.125C30.9106 70.125 26.0977 77.1257 26.0977 86.0625C26.0977 94.9993 30.9106 102 37.0547 102C43.1988 102 48.0117 94.9993 48.0117 86.0625C48.0117 77.1257 43.1988 70.125 37.0547 70.125Z" fill="black" fill-opacity="0.04"/>
<path d="M10.957 52.1953C4.81293 52.1953 0 59.1961 0 68.1328C0 77.0696 4.81293 84.0703 10.957 84.0703C17.1011 84.0703 21.9141 77.0696 21.9141 68.1328C21.9141 59.1961 17.1011 52.1953 10.957 52.1953Z" fill="black" fill-opacity="0.04"/>
</g>
<defs>
<clipPath id="clip0_181_29">
<rect width="102" height="102" fill="white" transform="matrix(1 0 0 -1 0 102)"/>
</clipPath>
</defs>
</svg>
