<svg width="36" height="36" viewBox="0 0 36 36" fill="none" xmlns="http://www.w3.org/2000/svg">
<path d="M7.5 16.875H6C5.385 16.875 4.875 17.385 4.875 18C4.875 18.615 5.385 19.125 6 19.125H7.5C8.115 19.125 8.625 18.615 8.625 18C8.625 17.385 8.115 16.875 7.5 16.875Z" fill="#FF9D00"/>
<path d="M9.78004 24.63L8.71504 25.695C8.28004 26.13 8.28004 26.85 8.71504 27.285C8.94004 27.495 9.22504 27.615 9.51004 27.615C9.81004 27.615 10.095 27.495 10.305 27.285L11.37 26.22C11.805 25.785 11.805 25.065 11.37 24.63C10.935 24.195 10.215 24.195 9.78004 24.63Z" fill="#FF9D00"/>
<path d="M10.305 8.715C9.87004 8.28 9.16504 8.28 8.71504 8.715C8.28004 9.165 8.28004 9.87 8.71504 10.305L9.78004 11.37C10.005 11.595 10.29 11.7 10.575 11.7C10.86 11.7 11.145 11.595 11.37 11.37C11.805 10.935 11.805 10.215 11.37 9.78L10.305 8.715Z" fill="#FF9D00"/>
<path d="M18 8.625C18.615 8.625 19.125 8.115 19.125 7.5V6C19.125 5.385 18.615 4.875 18 4.875C17.385 4.875 16.875 5.385 16.875 6V7.5C16.875 8.115 17.385 8.625 18 8.625Z" fill="#FF9D00"/>
<path d="M18 27.375C17.385 27.375 16.875 27.885 16.875 28.5V30C16.875 30.615 17.385 31.125 18 31.125C18.615 31.125 19.125 30.615 19.125 30V28.5C19.125 27.885 18.615 27.375 18 27.375Z" fill="#FF9D00"/>
<path d="M18 23.625C21.1066 23.625 23.625 21.1066 23.625 18C23.625 14.8934 21.1066 12.375 18 12.375C14.8934 12.375 12.375 14.8934 12.375 18C12.375 21.1066 14.8934 23.625 18 23.625Z" fill="#FF9D00"/>
<path d="M26.2201 24.63C25.7851 24.195 25.0651 24.195 24.6301 24.63C24.1951 25.065 24.1951 25.785 24.6301 26.22L25.6951 27.285C25.9051 27.495 26.1901 27.615 26.4901 27.615C26.7751 27.615 27.0601 27.495 27.2851 27.285C27.7201 26.85 27.7201 26.13 27.2851 25.695L26.2201 24.63Z" fill="#FF9D00"/>
<path d="M25.4251 11.7C25.7101 11.7 25.9951 11.595 26.2201 11.37L27.2851 10.305C27.7201 9.87 27.7201 9.165 27.2851 8.715C26.8351 8.28 26.1301 8.28 25.6951 8.715L24.6301 9.78C24.1951 10.215 24.1951 10.935 24.6301 11.37C24.8551 11.595 25.1401 11.7 25.4251 11.7Z" fill="#FF9D00"/>
<path d="M30 16.875H28.5C27.885 16.875 27.375 17.385 27.375 18C27.375 18.615 27.885 19.125 28.5 19.125H30C30.615 19.125 31.125 18.615 31.125 18C31.125 17.385 30.615 16.875 30 16.875Z" fill="#FF9D00"/>
</svg>
