<svg width="300" height="300" viewBox="0 0 300 300" fill="none" xmlns="http://www.w3.org/2000/svg">
<g clip-path="url(#clip0_133_25)">
<path d="M283.135 300H137.028C130.458 300 125.132 294.674 125.132 288.104V108.545C125.132 101.975 130.457 96.6492 137.028 96.6492H283.136C289.705 96.6492 295.031 101.975 295.031 108.545V288.105C295.031 294.674 289.705 300 283.135 300Z" fill="#1FC8E1"/>
<path d="M283.135 96.6492H277.283V270.495C277.283 277.064 271.957 282.39 265.387 282.39H125.131V288.104C125.131 294.674 130.457 300 137.027 300H283.135C289.705 300 295.031 294.674 295.031 288.104V108.545C295.031 101.975 289.705 96.6492 283.135 96.6492Z" fill="#29BCD1" fill-opacity="0.8"/>
<path d="M210.081 213.807C233.487 213.807 252.461 194.833 252.461 171.427C252.461 148.021 233.487 129.047 210.081 129.047C186.675 129.047 167.701 148.021 167.701 171.427C167.701 194.833 186.675 213.807 210.081 213.807Z" fill="white"/>
<path d="M219.376 130.082C228.773 137.855 234.761 149.604 234.761 162.752C234.761 186.158 215.787 205.133 192.381 205.133C189.187 205.133 186.079 204.768 183.087 204.098C190.418 210.162 199.824 213.807 210.082 213.807C233.488 213.807 252.462 194.833 252.462 171.427C252.462 151.215 238.309 134.32 219.376 130.082Z" fill="#F8F6F6"/>
<path d="M248.815 269.189H171.348C163.57 269.189 157.264 262.883 157.264 255.104C157.264 247.325 163.57 241.02 171.348 241.02H248.815C256.594 241.02 262.9 247.325 262.9 255.104C262.9 262.883 256.594 269.189 248.815 269.189Z" fill="#FF6B6B"/>
<path d="M248.815 241.02H245.141C245.156 241.284 245.165 241.551 245.165 241.819C245.165 249.598 238.859 255.904 231.081 255.904H157.288C157.702 263.311 163.838 269.189 171.348 269.189H248.815C256.594 269.189 262.9 262.883 262.9 255.104C262.9 247.325 256.594 241.02 248.815 241.02Z" fill="#EB7565"/>
<path d="M85.5066 300H16.8652C10.2957 300 4.96948 294.674 4.96948 288.104V242.986C4.96948 236.416 10.2951 231.09 16.8652 231.09H85.506C92.0755 231.09 97.4017 236.416 97.4017 242.986V288.104C97.4017 294.674 92.0761 300 85.5066 300Z" fill="#428FDB"/>
<path d="M85.5066 231.09H76.8423V270.473C76.8423 277.043 71.5167 282.369 64.9466 282.369H4.96948V288.104C4.96948 294.674 10.2951 300 16.8652 300H85.506C92.0755 300 97.4017 294.674 97.4017 288.104V242.986C97.4017 236.416 92.0761 231.09 85.5066 231.09Z" fill="#438BD4"/>
<path d="M85.5066 200.344H16.8652C10.2957 200.344 4.96948 195.018 4.96948 188.448V108.545C4.96948 101.975 10.2951 96.6492 16.8652 96.6492H85.506C92.0755 96.6492 97.4017 101.975 97.4017 108.545V188.448C97.4017 195.018 92.0761 200.344 85.5066 200.344Z" fill="#A3E4DB"/>
<path d="M85.5066 96.6492H76.8423V170.636C76.8423 177.205 71.5167 182.531 64.9466 182.531H4.96948V188.448C4.96948 195.018 10.2951 200.344 16.8652 200.344H85.506C92.0755 200.344 97.4017 195.018 97.4017 188.448V108.545C97.4017 101.975 92.0761 96.6492 85.5066 96.6492Z" fill="#A3E4DB"/>
<path d="M70.9927 269.94H31.3787C28.9517 269.94 26.9841 267.972 26.9841 265.545C26.9841 263.118 28.9517 261.151 31.3787 261.151H70.9927C73.4197 261.151 75.3873 263.118 75.3873 265.545C75.3873 267.972 73.4197 269.94 70.9927 269.94Z" fill="white"/>
<path d="M75.3945 129.122H51.1133C48.6863 129.122 46.7188 127.155 46.7188 124.728C46.7188 122.301 48.6863 120.333 51.1133 120.333H75.3945C77.8215 120.333 79.7891 122.301 79.7891 124.728C79.7891 127.155 77.8215 129.122 75.3945 129.122Z" fill="white"/>
<path d="M75.3945 152.891H51.1133C48.6863 152.891 46.7188 150.923 46.7188 148.496C46.7188 146.07 48.6863 144.102 51.1133 144.102H75.3945C77.8215 144.102 79.7891 146.07 79.7891 148.496C79.7891 150.923 77.8215 152.891 75.3945 152.891Z" fill="white"/>
<path d="M75.3945 176.659H51.1133C48.6863 176.659 46.7188 174.691 46.7188 172.264C46.7188 169.837 48.6863 167.87 51.1133 167.87H75.3945C77.8215 167.87 79.7891 169.837 79.7891 172.264C79.7891 174.691 77.8215 176.659 75.3945 176.659Z" fill="white"/>
<path d="M29.5255 129.122H26.9773C24.5503 129.122 22.5828 127.155 22.5828 124.728C22.5828 122.301 24.5503 120.333 26.9773 120.333H29.5255C31.9525 120.333 33.9201 122.301 33.9201 124.728C33.9201 127.155 31.9525 129.122 29.5255 129.122Z" fill="white"/>
<path d="M29.5255 152.891H26.9773C24.5503 152.891 22.5828 150.923 22.5828 148.496C22.5828 146.07 24.5503 144.102 26.9773 144.102H29.5255C31.9525 144.102 33.9201 146.07 33.9201 148.496C33.9201 150.923 31.9525 152.891 29.5255 152.891Z" fill="white"/>
<path d="M29.5255 176.659H26.9773C24.5503 176.659 22.5828 174.691 22.5828 172.264C22.5828 169.837 24.5503 167.87 26.9773 167.87H29.5255C31.9525 167.87 33.9201 169.837 33.9201 172.264C33.9201 174.691 31.9525 176.659 29.5255 176.659Z" fill="white"/>
<path d="M47.8992 0.00115967C45.4722 0.00115967 43.5046 1.96874 43.5046 4.39569V39.3445C43.5046 41.7715 45.4722 43.7391 47.8992 43.7391C50.3261 43.7391 52.2937 41.7715 52.2937 39.3445V4.39569C52.2937 1.96874 50.3261 0.00115967 47.8992 0.00115967Z" fill="white"/>
<path d="M29.2542 0.00115967C26.8272 0.00115967 24.8596 1.96874 24.8596 4.39569V28.4191C24.8596 30.0861 24.3856 32.2383 20.6913 34.0986C19.5493 34.6734 18.2942 34.9711 16.9002 34.95C15.3627 34.9482 14.028 34.5715 12.8186 33.7986C9.95161 31.9676 9.3645 30.3334 9.3645 28.4443V4.39569C9.3645 1.96874 7.39692 0.00115967 4.96997 0.00115967C2.54302 0.00115967 0.575439 1.96874 0.575439 4.39569V28.4443C0.575439 33.7277 3.10259 38.0209 8.08657 41.2049C10.711 42.8824 13.6729 43.7344 16.8885 43.7391H16.9149C19.684 43.7391 22.285 43.1367 24.6446 41.9484C32.0866 38.2008 33.6487 32.5224 33.6487 28.4191V4.39569C33.6487 1.96874 31.6811 0.00115967 29.2542 0.00115967Z" fill="white"/>
<path d="M170.43 36.8156L159.044 20.6303L168.698 6.92636C170.096 4.94238 169.621 2.20078 167.637 0.802729C165.651 -0.595318 162.911 -0.11895 161.513 1.86445L153.672 12.9943L145.845 1.86679C144.448 -0.118364 141.707 -0.594732 139.722 0.800971C137.737 2.19726 137.26 4.93886 138.656 6.92402L148.296 20.6268L136.893 36.8133C135.496 38.7973 135.971 41.5389 137.955 42.9369C138.724 43.4789 139.607 43.7391 140.482 43.7391C141.863 43.7391 143.222 43.0898 144.078 41.8752L153.668 28.2633L163.242 41.8734C164.097 43.0898 165.457 43.7396 166.84 43.7396C167.713 43.7396 168.596 43.4801 169.365 42.9393C171.35 41.5418 171.827 38.8008 170.43 36.8156Z" fill="white"/>
<path d="M126.354 0.00115967C123.927 0.00115967 121.959 1.96874 121.959 4.39569V28.4191C121.959 30.0861 121.485 32.2383 117.791 34.0986C116.649 34.6734 115.396 34.9711 114 34.95C112.462 34.9482 111.127 34.5715 109.918 33.7986C107.051 31.9676 106.464 30.3334 106.464 28.4443V4.39569C106.464 1.96874 104.496 0.00115967 102.069 0.00115967C99.6424 0.00115967 97.6748 1.96874 97.6748 4.39569V28.4443C97.6748 33.7277 100.202 38.0209 105.186 41.2049C107.81 42.8824 110.772 43.7344 113.988 43.7391H114.014C116.783 43.7391 119.384 43.1367 121.744 41.9484C129.186 38.2008 130.748 32.5224 130.748 28.4191V4.39569C130.748 1.96874 128.78 0.00115967 126.354 0.00115967Z" fill="white"/>
<path d="M84.7792 0.348041C82.5427 -0.597076 79.9652 0.448822 79.0201 2.68359L64.241 37.6324C63.2958 39.8678 64.3412 42.4465 66.5765 43.3916C67.1355 43.6277 67.7156 43.7396 68.2863 43.7396C69.999 43.7396 71.6267 42.7318 72.3357 41.0555L87.1148 6.10663C88.0599 3.87187 87.0146 1.29316 84.7792 0.348041Z" fill="white"/>
<path d="M295.031 72.3357H4.96997C2.54302 72.3357 0.575439 70.3682 0.575439 67.9412C0.575439 65.5143 2.54302 63.5467 4.96997 63.5467H295.031C297.458 63.5467 299.425 65.5143 299.425 67.9412C299.425 70.3682 297.458 72.3357 295.031 72.3357Z" fill="#428FDB"/>
<path d="M295.031 8.78906H263.933C261.505 8.78906 259.538 6.82148 259.538 4.39453C259.538 1.96758 261.505 0 263.933 0H295.031C297.458 0 299.425 1.96758 299.425 4.39453C299.425 6.82148 297.458 8.78906 295.031 8.78906Z" fill="white"/>
<path d="M295.031 26.1445H263.933C261.505 26.1445 259.538 24.177 259.538 21.75C259.538 19.323 261.505 17.3555 263.933 17.3555H295.031C297.458 17.3555 299.425 19.323 299.425 21.75C299.425 24.177 297.458 26.1445 295.031 26.1445Z" fill="white"/>
<path d="M295.031 43.4994H263.933C261.505 43.4994 259.538 41.5318 259.538 39.1049C259.538 36.6779 261.505 34.7104 263.933 34.7104H295.031C297.458 34.7104 299.425 36.6779 299.425 39.1049C299.425 41.5318 297.458 43.4994 295.031 43.4994Z" fill="white"/>
</g>
<defs>
<clipPath id="clip0_133_25">
<rect width="300" height="300" fill="white"/>
</clipPath>
</defs>
</svg>
