<svg width="50" height="50" viewBox="0 0 50 50" fill="none" xmlns="http://www.w3.org/2000/svg">
<path fill-rule="evenodd" clip-rule="evenodd" d="M0 25C0 11.175 11.175 0 25 0C38.825 0 50 11.175 50 25C50 38.825 38.825 50 25 50C11.175 50 0 38.825 0 25ZM32.225 35.75C33.2 36.725 34.775 36.725 35.75 35.75C36.7 34.775 36.7 33.175 35.75 32.225L28.525 25L35.75 17.775C36.725 16.8 36.725 15.225 35.75 14.25C34.775 13.275 33.2 13.275 32.225 14.25L25 21.475L17.775 14.25C16.8 13.275 15.225 13.275 14.25 14.25C13.7819 14.7171 13.5188 15.3512 13.5188 16.0125C13.5188 16.6738 13.7819 17.3079 14.25 17.775L21.475 25L14.25 32.225C13.7819 32.692 13.5188 33.3263 13.5188 33.9875C13.5188 34.6488 13.7819 35.283 14.25 35.75C15.225 36.725 16.8 36.725 17.775 35.75L25 28.525L32.225 35.75Z" fill="#428FDB"/>
</svg>
